<svg height="509.21" viewBox="0 0 260.8 509.21" width="260.8" xmlns="http://www.w3.org/2000/svg"><g fill="none"><path d="m164.98 90.42-.3-16.74-6.27-4.11c0 6.68-.16 14.17-.01 20.85z"/><path d="m155.98 90.42c0-8.04-.16-21.63-.16-21.63-.45-.36-14.26-3.98-14.26-3.98 0 7.93.31 25.61.31 25.61h14.1z"/><path d="m139.43 90.42c0-8.69-.16-17.21-.16-25.61h-19.04l.73 25.61h18.46z"/><path d="m101.31 90.42-.63-22.15-7.03 2.71.36 19.26z"/><path d="m117.82 90.42c0-8.97-.16-16.47-.16-25.46-5.91.76-8.76 1.47-14.97 2.28l1.06 23.19h14.06z"/><path d="m189.25 113.99-20.83-2.96-.23 11.59 21 3.47z"/><path d="m53.37 132.98 16.79-4.27.4-14.53-17.16 4.37z"/><path d="m207.19 101.92-15.15-3.39-.04 11.87 15.28 3.78z"/><path d="m207.13 130.08.15-12.27-15.28-3.25.2 12.3z"/><path d="m189.19 98.24c-.05-.15-20.72-3.49-20.72-3.49l-.05 12.19 20.7 3.01.07-11.72z"/><path d="m233.19 467.39-90.1 16.03-.06 18.44s83.91-15.14 93.44-16.9c6.89-1.27 10.59-6.36 8.7-11.5-1.71-3.94-3.04-7.43-11.99-6.07z"/><path d="m35.09 470.15c-4.71-.58-9.99-.88-14.31-1.33 2.33 2.72 2.91 6.19 3.09 8.73.37 5.14-2.9 7.16-2.9 7.16 37.99 5.67 76.3 10.67 115.22 16.48l-.16-17.61s-71.43-9.79-100.95-13.43z"/><path d="m235.07 446.7c0-3.98 3.38-7.47 3.38-7.47-.36.02-24.21 2.89-35.07 4.23-25.77 3.18-79.73 10.81-79.73 10.81l-.02 18.19 113.55-18.28s-2.11-3.91-2.11-7.47z"/><path d="m59.34 463.07c18.95 3.18 37.9 6.35 57.85 9.69l.24-18.74s-45.92-9.96-66.79-14.04c-7.83-1.53-15.64-3.17-23.48-4.59-4.26-.77-8.57-1.14-11.13 3.56-3.93 7.22.51 16.76 8.62 18.22 11.54 2.08 23.12 3.96 34.69 5.91z"/><path d="m91.18 111.17-17.3 2.37-.57 14.5 17.98-2.31s-.12-12.7-.12-14.57z"/><path d="m91.51 95.65-17.46 2.69-.17 12.15 17.52-2.45z"/><path d="m70.52 111.02.38-12.09-17.61 4.44s0 11.76.08 11.85z"/></g><path d="m49.15 134.9c-.14 4.63.78 8.21 5.57 9.35 3.42.81 7.72 1.9 9.6 4.39 1.29 1.71 5.19 3.07 5.18 3.12 33.69-4.8 76.07-5.76 121.51.93 0-.04 3.11-2.32 3.49-4.29.76-3.89 7.56-4.34 11.07-5.64 3.64-1.35 4.92-3.69 4.86-7.5-.14-9.39-.17-28.23-.17-28.23.03-7.63-1.87-7.73-6.36-8.74-7.28-1.63-14.61-3.04-21.95-4.37l-14.02-2.92s-.49-16.73-.44-17.06l3.5-7.29c-1.7-1.38-5.7-3.93-8.39-5.75-6.87-4.64-22.93-14.85-23.85-15.54-.4-.3-.77-.62-1.13-.94v-1.64c0-.93-.75-1.68-1.68-1.68h-.09v-.89c0-.93-.75-1.68-1.68-1.68h-.78c-1.69-3.72-2.01-7.43-1.64-9.14 2.84-1.1 4.86-3.84 4.86-7.07 0-3.63-2.55-6.65-5.94-7.41l-1.62-14.92s-1.28 11.99-1.65 14.91c-3.42.74-5.98 3.78-5.98 7.42 0 3.22 2.01 5.95 4.83 7.06.32 1.78.39 5.46-1.08 9.15h-1.31c-.93 0-1.68.75-1.68 1.68v.89h-.09c-.93 0-1.68.75-1.68 1.68v2.1c-.33.26-.67.52-1.04.76-9.45 6.13-31.98 21.01-31.98 21.01l3.83 4.73c.18 4.99.36 18.87.28 19.41 0 0-27.84 3.42-38.11 8-2.64 1.18-4.33 2.48-4.26 5.83.19 9.16.28 21.11.01 30.27zm142.62-34.56 14.2 2.6.03 12.31-14.34-2.65.1-12.26zm14.24 17.87-.15 14.63-13.99-2.43-.2-14.66 14.34 2.47zm-37.81-21.65s20.67 3.34 20.72 3.49l-.13 12.11-20.7-3.01.1-12.58zm-.1 15.66 20.83 2.96-.06 14.47-21-3.48zm-9.68-42.65 6.27 4.11.3 16.74-6.58-.57c-.15-6.68.01-13.6.01-20.28zm-2.59-.78s.16 13.01.16 21.06l-14.11-.43s-.3-16.68-.3-24.61c0 0 13.81 3.63 14.26 3.98zm-16.55-3.98c0 8.4.15 15.87.15 24.55l-18.49.06-.7-24.61zm-21.61.15c0 8.99.15 15.55.15 24.52l-14.09.25-1.03-22.5c6.21-.8 9.06-1.51 14.97-2.28zm-16.98 3.32.61 21.57-7.29.39-.35-19.26zm-30.52 60.44-16.78 4.27.03-14.44 17.16-4.37-.4 14.53zm3.9-30.37 17.45-2.69-.1 12.39-17.52 2.45zm-.17 15.21 17.3-2.37c0 1.87.12 14.57.12 14.57l-17.98 2.31.57-14.5zm-2.98-14.62-.38 12.09-17.15 4.2c-.08-.09-.08-11.85-.08-11.85z" fill="#d83039"/><path d="m69.5 155.11c-.02.18-.04.36-.04.56-.82 39.68-1.74 79.36-2.62 119.04 35.64-4.25 81.45-4.98 130.48 1.49 0-.39 0-.77-.03-1.14-2.11-39.67-4.26-79.34-6.28-119.01-45.44-6.69-87.83-5.74-121.51-.93z" fill="#d83039"/><path d="m248.24 455.27c-6.58-1.37-8.09-4.94-7.37-9.9.7-4.75 13.44-9.61 15.36-10.29.38-.22 1.24-.75-.13-1.35-1.25-.38-48.88-9.89-48.88-9.89s-4.35-56.59-5.93-83.32c-1.12-18.92-3.96-60.64-3.96-60.97-49.03-6.46-94.85-5.74-130.48-1.49 0 .24-.01.48-.02.72-.01.6-4.05 145.45-4.05 145.45s-33.31 4-42.87 5.52c-9.69 1.54-14.48 9.48-11.98 18.11 1.15 4.52 5.47 10.9 8.41 11.67-2.37.61-9.1 2.63-12.46 3.48-.86.12-1.55.99-.14 1.4 1.89.75 11.76 3.82 11.76 3.82s4.14 5.24 2.98 10.34c-.05 4.6-5.34 5.44-5.34 5.44s-8.31 2.43-12.71 3.48c-1.54.66 1.67 1.74 2.41 1.85 41.51 6.05 83.01 12.13 124.53 18.06 6.47.92 13.29 2.56 19.51 1.43 31.1-5.63 62.06-12.07 93.07-18.24 6.36-1.27 12.52-3.17 14.35-9.15 1.99-6.5-1.63-14.56-7.29-19.85 4.73-.87 8.72-1.6 13.57-2.49 2.25-.72-12.33-3.82-12.33-3.82zm-232.22-16.33c2.55-4.7 6.87-4.33 11.13-3.56 7.85 1.43 15.65 3.06 23.48 4.59 20.87 4.09 66.79 14.04 66.79 14.04l-.24 18.74c-19.95-3.34-38.9-6.51-57.85-9.69-11.57-1.94-23.15-3.83-34.69-5.91-8.11-1.46-12.55-10.99-8.62-18.22zm4.96 45.78s3.26-2.03 2.9-7.16c-.18-2.54-.76-6.01-3.09-8.73 4.32.44 9.6.75 14.31 1.33 29.52 3.64 100.95 13.43 100.95 13.43l.16 17.61c-38.92-5.8-77.24-10.81-115.22-16.48zm102.65-12.26.02-18.19s53.97-7.63 79.73-10.81c10.87-1.34 34.72-4.2 35.07-4.23 0 0-3.38 3.49-3.38 7.47 0 3.56 2.11 7.47 2.11 7.47l-113.55 18.28zm112.84 12.5c-9.53 1.76-93.44 16.9-93.44 16.9l.06-18.44 90.1-16.03c8.95-1.36 10.28 2.13 11.99 6.07 1.88 5.15-1.81 10.23-8.7 11.5z" fill="#d83039"/></svg>